<svg version="1.0" xmlns="http://www.w3.org/2000/svg">
  <defs>

  <symbol id="icon-arrow-btn" viewBox="0 0 26 32">
    <path fill="none" stroke="#d41443" style="stroke: var(--color1, #d41443)" stroke-linejoin="round" stroke-linecap="round" stroke-miterlimit="4" stroke-width="6.4" d="M3.542 3.2l16.825 12.8-16.825 12.8"></path>
  </symbol>

  <symbol id="icon-more-than" viewBox="0 0 6 10">
    <path d="M1 1L5 5L1 9" stroke-linecap="round" stroke-linejoin="round" fill="none"/>
  </symbol>

  <symbol id="icon-elipse" viewBox="0 0 12 12">
    <circle cx="6" cy="6" r="6"/>
  </symbol>

  <symbol id="icon-home" viewBox="0 0 13 12">
    <path d="M12.8449 5.85484C13.0696 5.60772 13.0479 5.22897 12.7964 5.00908L7.25687 0.161935C7.00543 -0.0579491 6.60231 -0.0533429 6.35616 0.172319L0.797761 5.26751C0.551613 5.49318 0.539532 5.87145 0.771013 6.11206L0.91037 6.25719C1.14157 6.49781 1.51527 6.52649 1.74453 6.32107L2.15994 5.94907V11.3953C2.15994 11.7295 2.43069 12 2.7646 12H4.93127C5.26518 12 5.53594 11.7295 5.53594 11.3953V7.58515H8.29956V11.3953C8.29475 11.7292 8.53367 11.9998 8.86757 11.9998H11.1637C11.4976 11.9998 11.7684 11.7292 11.7684 11.3951V6.02575C11.7684 6.02575 11.8831 6.12628 12.0247 6.25069C12.166 6.37485 12.4627 6.2753 12.6874 6.02794L12.8449 5.85484Z"/>
  </symbol>

  <symbol id="icon-fb" viewBox="0 0 11 22">
    <path d="M9.72348 10.9804H6.95018V21.2001H2.74839V10.9804H0.75V7.38881H2.74839V5.06464C2.74839 3.40261 3.53328 0.800049 6.98758 0.800049L10.1 0.813146V4.2994H7.84174C7.47132 4.2994 6.95046 4.48555 6.95046 5.27839V7.39216H10.0906L9.72348 10.9804Z"/>
  </symbol>

  <symbol id="icon-git" viewBox="0 0 20 20">
    <path d="M10 0C4.50745 0 0 4.50745 0 10C0 14.687 3.28888 18.9447 7.65625 20V16.6916C7.22351 16.7863 6.82526 16.7891 6.38474 16.6592C5.79376 16.4848 5.31357 16.0912 4.95712 15.4909C4.72992 15.1076 4.32724 14.6919 3.90717 14.7224L3.80417 13.5551C4.71252 13.4773 5.49835 14.1086 5.96481 14.8923C6.17203 15.2408 6.41052 15.4451 6.71661 15.5354C7.01248 15.6226 7.33017 15.5807 7.70035 15.45C7.79327 14.7089 8.13278 14.4315 8.38928 14.0408V14.0402C5.78461 13.6517 4.74655 12.2699 4.33456 11.1792C3.7886 9.73099 4.08157 7.92175 5.047 6.77841C5.06577 6.75613 5.09964 6.69785 5.08652 6.6571C4.64386 5.31998 5.18326 4.21387 5.20309 4.09653C5.71396 4.24759 5.79697 3.94455 7.42218 4.93195L7.70309 5.10071C7.82059 5.17075 7.78366 5.13077 7.90115 5.12192C8.57971 4.93759 9.29504 4.83582 9.99985 4.82666C10.71 4.83582 11.4207 4.93759 12.1274 5.12939L12.2183 5.13855C12.2104 5.13733 12.243 5.13275 12.2978 5.1001C14.328 3.87039 14.2551 4.27231 14.7995 4.09531C14.8192 4.2128 15.3514 5.33691 14.9135 6.6571C14.8544 6.83899 16.6736 8.50479 15.6653 11.1787C15.2533 12.2699 14.2154 13.6517 11.6107 14.0402V14.0408C11.9446 14.5497 12.3457 14.8204 12.3436 15.8702V20C16.7111 18.9447 19.9998 14.687 19.9998 10C20 4.50745 15.4926 0 10 0V0Z"/>
  </symbol>

  <symbol id="icon-telegram" viewBox="0 0 22 16">
    <path d="M8.67148 10.5238L8.33402 14.9538C8.81683 14.9538 9.02594 14.7602 9.2767 14.5278L11.5403 12.5088L16.2307 15.7146C17.0909 16.162 17.697 15.9264 17.9291 14.976L21.0078 1.51162L21.0087 1.51083C21.2815 0.324011 20.5488 -0.140087 19.7107 0.151065L1.61376 6.61749C0.378681 7.06493 0.397382 7.70753 1.40381 7.99868L6.03047 9.34178L16.7773 3.06576C17.283 2.75319 17.7429 2.92613 17.3646 3.2387L8.67148 10.5238Z"/>
  </symbol>

  </defs>
</svg>
